<svg width="22" height="16" viewBox="0 0 22 16" fill="none" xmlns="http://www.w3.org/2000/svg">
<path d="M16.25 0.125H5.75C4.35807 0.126489 3.02358 0.680091 2.03933 1.66433C1.05509 2.64858 0.501489 3.98307 0.5 5.375V14.375C0.5 14.7728 0.658035 15.1544 0.93934 15.4357C1.22064 15.717 1.60218 15.875 2 15.875H20C20.3978 15.875 20.7794 15.717 21.0607 15.4357C21.342 15.1544 21.5 14.7728 21.5 14.375V5.375C21.4985 3.98307 20.9449 2.64858 19.9607 1.66433C18.9764 0.680091 17.6419 0.126489 16.25 0.125ZM20 5.375V6.125H17V1.7C17.8465 1.87404 18.607 2.33459 19.1535 3.00403C19.7 3.67346 19.9989 4.51084 20 5.375ZM11.75 9.125H10.25V6.125H11.75V9.125ZM9.5 10.625H12.5C12.6989 10.625 12.8897 10.546 13.0303 10.4053C13.171 10.2647 13.25 10.0739 13.25 9.875V7.625H15.5V14.375H6.5V7.625H8.75V9.875C8.75 10.0739 8.82902 10.2647 8.96967 10.4053C9.11032 10.546 9.30109 10.625 9.5 10.625ZM13.25 6.125V5.375C13.25 5.17609 13.171 4.98532 13.0303 4.84467C12.8897 4.70402 12.6989 4.625 12.5 4.625H9.5C9.30109 4.625 9.11032 4.70402 8.96967 4.84467C8.82902 4.98532 8.75 5.17609 8.75 5.375V6.125H6.5V1.625H15.5V6.125H13.25ZM5 1.7V6.125H2V5.375C2.00106 4.51084 2.30002 3.67346 2.8465 3.00403C3.39297 2.33459 4.15354 1.87404 5 1.7ZM2 7.625H5V14.375H2V7.625ZM20 14.375H17V7.625H20V14.375Z" fill="black"/>
</svg>
