<svg width="18" height="19" viewBox="0 0 18 19" fill="none" xmlns="http://www.w3.org/2000/svg">
<path d="M17.9674 16.2391L14.8559 1.44531C14.8156 1.25185 14.7376 1.06824 14.6261 0.905047C14.5147 0.741849 14.3722 0.602274 14.2066 0.494338C14.0411 0.386402 13.8559 0.312234 13.6616 0.276094C13.4674 0.239954 13.2679 0.242555 13.0746 0.283746L8.68618 1.22687C8.29801 1.31187 7.95909 1.54668 7.74315 1.88026C7.52721 2.21383 7.4517 2.61917 7.53306 3.00812L10.6446 17.8019C10.714 18.1394 10.8974 18.4427 11.1641 18.6609C11.4308 18.8791 11.7644 18.9989 12.109 19C12.2155 18.9999 12.3217 18.9885 12.4259 18.9662L16.8143 18.0231C17.203 17.9379 17.5422 17.7026 17.7582 17.3685C17.9741 17.0343 18.0494 16.6284 17.9674 16.2391ZM9.00024 2.70156C9.00024 2.69593 9.00024 2.69312 9.00024 2.69312L13.3877 1.75562L13.6999 3.24343L9.31243 4.1875L9.00024 2.70156ZM9.62087 5.65187L14.0102 4.70968L14.3234 6.20031L9.93774 7.14343L9.62087 5.65187ZM10.2434 8.61156L14.6327 7.66843L15.8796 13.5972L11.4902 14.5403L10.2434 8.61156ZM16.5002 16.5569L12.1127 17.4944L11.8006 16.0066L16.1881 15.0625L16.5002 16.5484C16.5002 16.5541 16.5002 16.5569 16.5002 16.5569ZM6.00024 0.999996H1.50024C1.10242 0.999996 0.720888 1.15803 0.439584 1.43934C0.158279 1.72064 0.000244141 2.10217 0.000244141 2.5V17.5C0.000244141 17.8978 0.158279 18.2794 0.439584 18.5607C0.720888 18.842 1.10242 19 1.50024 19H6.00024C6.39807 19 6.7796 18.842 7.0609 18.5607C7.34221 18.2794 7.50024 17.8978 7.50024 17.5V2.5C7.50024 2.10217 7.34221 1.72064 7.0609 1.43934C6.7796 1.15803 6.39807 0.999996 6.00024 0.999996ZM1.50024 2.5H6.00024V4H1.50024V2.5ZM1.50024 5.5H6.00024V14.5H1.50024V5.5ZM6.00024 17.5H1.50024V16H6.00024V17.5Z" fill="currentColor"/>
</svg>
