<svg width="22" height="18" viewBox="0 0 22 18" fill="none" xmlns="http://www.w3.org/2000/svg">
<path d="M20.75 0H14C13.4178 0 12.8437 0.135544 12.3229 0.395898C11.8022 0.656252 11.3493 1.03426 11 1.5C10.6507 1.03426 10.1978 0.656252 9.67705 0.395898C9.15634 0.135544 8.58217 0 8 0H1.25C1.05109 0 0.860322 0.0790178 0.71967 0.21967C0.579018 0.360322 0.5 0.551088 0.5 0.75V14.25C0.5 14.4489 0.579018 14.6397 0.71967 14.7803C0.860322 14.921 1.05109 15 1.25 15H8C8.59674 15 9.16903 15.2371 9.59099 15.659C10.0129 16.081 10.25 16.6533 10.25 17.25C10.25 17.4489 10.329 17.6397 10.4697 17.7803C10.6103 17.921 10.8011 18 11 18C11.1989 18 11.3897 17.921 11.5303 17.7803C11.671 17.6397 11.75 17.4489 11.75 17.25C11.75 16.6533 11.9871 16.081 12.409 15.659C12.831 15.2371 13.4033 15 14 15H20.75C20.9489 15 21.1397 14.921 21.2803 14.7803C21.421 14.6397 21.5 14.4489 21.5 14.25V0.75C21.5 0.551088 21.421 0.360322 21.2803 0.21967C21.1397 0.0790178 20.9489 0 20.75 0ZM8 13.5H2V1.5H8C8.59674 1.5 9.16903 1.73705 9.59099 2.15901C10.0129 2.58097 10.25 3.15326 10.25 3.75V14.25C9.6015 13.762 8.8116 13.4987 8 13.5ZM20 13.5H14C13.1884 13.4987 12.3985 13.762 11.75 14.25V3.75C11.75 3.15326 11.9871 2.58097 12.409 2.15901C12.831 1.73705 13.4033 1.5 14 1.5H20V13.5Z" fill="currentColor"/>
</svg>
