<svg width="24" height="14" viewBox="0 0 24 14" fill="none" xmlns="http://www.w3.org/2000/svg">
<path d="M13.8757 2.74965C13.8757 2.55074 13.9547 2.35998 14.0953 2.21932C14.236 2.07867 14.4268 1.99965 14.6257 1.99965H22.8757C23.0746 1.99965 23.2653 2.07867 23.406 2.21932C23.5466 2.35998 23.6257 2.55074 23.6257 2.74965C23.6257 2.94857 23.5466 3.13933 23.406 3.27998C23.2653 3.42064 23.0746 3.49965 22.8757 3.49965H14.6257C14.4268 3.49965 14.236 3.42064 14.0953 3.27998C13.9547 3.13933 13.8757 2.94857 13.8757 2.74965ZM22.8757 6.49965H14.6257C14.4268 6.49965 14.236 6.57867 14.0953 6.71932C13.9547 6.85998 13.8757 7.05074 13.8757 7.24965C13.8757 7.44857 13.9547 7.63933 14.0953 7.77999C14.236 7.92064 14.4268 7.99965 14.6257 7.99965H22.8757C23.0746 7.99965 23.2653 7.92064 23.406 7.77999C23.5466 7.63933 23.6257 7.44857 23.6257 7.24965C23.6257 7.05074 23.5466 6.85998 23.406 6.71932C23.2653 6.57867 23.0746 6.49965 22.8757 6.49965ZM22.8757 10.9997H16.8757C16.6768 10.9997 16.486 11.0787 16.3453 11.2193C16.2047 11.36 16.1257 11.5507 16.1257 11.7497C16.1257 11.9486 16.2047 12.1393 16.3453 12.28C16.486 12.4206 16.6768 12.4997 16.8757 12.4997H22.8757C23.0746 12.4997 23.2653 12.4206 23.406 12.28C23.5466 12.1393 23.6257 11.9486 23.6257 11.7497C23.6257 11.5507 23.5466 11.36 23.406 11.2193C23.2653 11.0787 23.0746 10.9997 22.8757 10.9997ZM13.8522 13.0622C13.8767 13.1576 13.8822 13.2569 13.8684 13.3544C13.8545 13.4519 13.8215 13.5458 13.7714 13.6306C13.7212 13.7154 13.6549 13.7895 13.5761 13.8486C13.4973 13.9078 13.4077 13.9508 13.3122 13.9753C13.2511 13.9918 13.188 14 13.1247 13.9997C12.9584 13.9997 12.7967 13.9445 12.6652 13.8427C12.5337 13.7409 12.4397 13.5982 12.3982 13.4372C11.8207 11.1928 9.55379 9.49965 7.12473 9.49965C4.69567 9.49965 2.42879 11.1918 1.85129 13.4372C1.80156 13.6299 1.67732 13.7949 1.5059 13.896C1.33448 13.9971 1.12992 14.0259 0.937227 13.9762C0.744531 13.9265 0.579481 13.8022 0.478388 13.6308C0.377294 13.4594 0.348437 13.2549 0.398165 13.0622C0.922227 11.0268 2.44566 9.37872 4.37879 8.56215C3.63444 7.98884 3.08822 7.19692 2.81671 6.29746C2.54521 5.39799 2.56205 4.43611 2.86486 3.54671C3.16768 2.6573 3.74129 1.88498 4.50525 1.33806C5.2692 0.79115 6.18518 0.49707 7.12473 0.49707C8.06427 0.49707 8.98025 0.79115 9.74421 1.33806C10.5082 1.88498 11.0818 2.6573 11.3846 3.54671C11.6874 4.43611 11.7042 5.39799 11.4327 6.29746C11.1612 7.19692 10.615 7.98884 9.87067 8.56215C11.8047 9.37872 13.3282 11.0268 13.8522 13.0622ZM7.12567 7.99965C7.71901 7.99965 8.29903 7.82371 8.79238 7.49406C9.28572 7.16442 9.67024 6.69588 9.8973 6.14771C10.1244 5.59953 10.1838 4.99633 10.068 4.41438C9.95227 3.83244 9.66654 3.29789 9.24699 2.87833C8.82743 2.45878 8.29288 2.17305 7.71094 2.0573C7.12899 1.94154 6.52579 2.00095 5.97761 2.22802C5.42944 2.45508 4.9609 2.8396 4.63126 3.33294C4.30161 3.82629 4.12566 4.40631 4.12566 4.99965C4.12566 5.7953 4.44174 6.55837 5.00434 7.12097C5.56695 7.68358 6.33002 7.99965 7.12567 7.99965Z" fill="currentColor"/>
</svg>
