<svg width="20" height="15" viewBox="0 0 20 15" fill="none" xmlns="http://www.w3.org/2000/svg">
<path fill-rule="evenodd" clip-rule="evenodd" d="M7.375 0.25H1.75C0.921573 0.25 0.25 0.921573 0.25 1.75V7.75C0.25 8.57843 0.921573 9.25 1.75 9.25H7.375V10C7.375 11.6569 6.03185 13 4.375 13C3.96079 13 3.625 13.3358 3.625 13.75C3.625 14.1642 3.96079 14.5 4.375 14.5C6.85921 14.4974 8.87242 12.4842 8.875 10V1.75C8.875 0.921573 8.20343 0.25 7.375 0.25ZM7.375 7.75H1.75V1.75H7.375V7.75ZM18.25 0.25H12.625C11.7966 0.25 11.125 0.921573 11.125 1.75V7.75C11.125 8.57843 11.7966 9.25 12.625 9.25H18.25V10C18.25 11.6569 16.9069 13 15.25 13C14.8358 13 14.5 13.3358 14.5 13.75C14.5 14.1642 14.8358 14.5 15.25 14.5C17.7342 14.4974 19.7474 12.4842 19.75 10V1.75C19.75 0.921573 19.0784 0.25 18.25 0.25ZM18.25 7.75H12.625V1.75H18.25V7.75Z" fill="black"/>
</svg>
