<svg width="22" height="16" viewBox="0 0 22 16" fill="none" xmlns="http://www.w3.org/2000/svg">
<path d="M16.25 0.25H5.75C4.35807 0.251489 3.02358 0.805091 2.03933 1.78933C1.05509 2.77358 0.501489 4.10807 0.5 5.5V14.5C0.5 14.8978 0.658035 15.2794 0.93934 15.5607C1.22064 15.842 1.60218 16 2 16H20C20.3978 16 20.7794 15.842 21.0607 15.5607C21.342 15.2794 21.5 14.8978 21.5 14.5V5.5C21.4985 4.10807 20.9449 2.77358 19.9607 1.78933C18.9764 0.805091 17.6419 0.251489 16.25 0.25ZM20 5.5V6.25H17V1.825C17.8465 1.99904 18.607 2.45959 19.1535 3.12903C19.7 3.79846 19.9989 4.63584 20 5.5ZM11.75 9.25H10.25V6.25H11.75V9.25ZM9.5 10.75H12.5C12.6989 10.75 12.8897 10.671 13.0303 10.5303C13.171 10.3897 13.25 10.1989 13.25 10V7.75H15.5V14.5H6.5V7.75H8.75V10C8.75 10.1989 8.82902 10.3897 8.96967 10.5303C9.11032 10.671 9.30109 10.75 9.5 10.75ZM13.25 6.25V5.5C13.25 5.30109 13.171 5.11032 13.0303 4.96967C12.8897 4.82902 12.6989 4.75 12.5 4.75H9.5C9.30109 4.75 9.11032 4.82902 8.96967 4.96967C8.82902 5.11032 8.75 5.30109 8.75 5.5V6.25H6.5V1.75H15.5V6.25H13.25ZM5 1.825V6.25H2V5.5C2.00106 4.63584 2.30002 3.79846 2.8465 3.12903C3.39297 2.45959 4.15354 1.99904 5 1.825ZM2 7.75H5V14.5H2V7.75ZM20 14.5H17V7.75H20V14.5Z" fill="#F3F2EE"/>
</svg>
