<svg width="18" height="19" viewBox="0 0 18 19" fill="none" xmlns="http://www.w3.org/2000/svg">
<path d="M17.9677 15.8494L14.856 1.64678C14.8158 1.46105 14.7377 1.28479 14.6263 1.12811C14.5149 0.971434 14.3723 0.837435 14.2068 0.733813C14.0413 0.63019 13.856 0.558986 13.6618 0.52429C13.4675 0.489594 13.268 0.49209 13.0747 0.531636L8.68617 1.43707C8.29799 1.51867 7.95906 1.74411 7.74311 2.06435C7.52716 2.38459 7.45166 2.77374 7.53301 3.14715L10.6447 17.3498C10.714 17.6738 10.8974 17.965 11.1641 18.1745C11.4308 18.384 11.7645 18.4989 12.1091 18.5C12.2156 18.4999 12.3218 18.489 12.426 18.4676L16.8145 17.5622C17.2032 17.4804 17.5424 17.2545 17.7584 16.9337C17.9744 16.6129 18.0496 16.2232 17.9677 15.8494ZM9.00024 2.85283C9.00024 2.84743 9.00024 2.84473 9.00024 2.84473L13.3879 1.9447L13.7001 3.37306L9.31244 4.2794L9.00024 2.85283ZM9.62088 5.68526L14.0104 4.78072L14.3235 6.21178L9.93777 7.11722L9.62088 5.68526ZM10.2434 8.52668L14.6329 7.62124L15.8798 13.3131L11.4903 14.2185L10.2434 8.52668ZM16.5004 16.1545L12.1128 17.0545L11.8006 15.6262L16.1882 14.7198L16.5004 16.1464C16.5004 16.1518 16.5004 16.1545 16.5004 16.1545ZM6.00016 1.21927H1.50004C1.1022 1.21927 0.720664 1.37099 0.439351 1.64105C0.158039 1.91111 0 2.2774 0 2.65933V17.0599C0 17.4419 0.158039 17.8082 0.439351 18.0782C0.720664 18.3483 1.1022 18.5 1.50004 18.5H6.00016C6.398 18.5 6.77954 18.3483 7.06085 18.0782C7.34216 17.8082 7.5002 17.4419 7.5002 17.0599V2.65933C7.5002 2.2774 7.34216 1.91111 7.06085 1.64105C6.77954 1.37099 6.398 1.21927 6.00016 1.21927ZM1.50004 2.65933H6.00016V4.09939H1.50004V2.65933ZM1.50004 5.53945H6.00016V14.1798H1.50004V5.53945ZM6.00016 17.0599H1.50004V15.6199H6.00016V17.0599Z" fill="#F3F2EE"/>
</svg>
