<svg width="22" height="19" viewBox="0 0 22 19" fill="none" xmlns="http://www.w3.org/2000/svg">
<path d="M15.6875 0.124756C13.8041 0.124756 12.1325 0.868194 11 2.14601C9.8675 0.868194 8.19594 0.124756 6.3125 0.124756C4.67208 0.126741 3.09942 0.779273 1.93947 1.93922C0.779518 3.09918 0.126985 4.67184 0.125 6.31226C0.125 13.0941 10.0447 18.5129 10.4666 18.7407C10.6305 18.829 10.8138 18.8752 11 18.8752C11.1862 18.8752 11.3695 18.829 11.5334 18.7407C11.9553 18.5129 21.875 13.0941 21.875 6.31226C21.873 4.67184 21.2205 3.09918 20.0605 1.93922C18.9006 0.779273 17.3279 0.126741 15.6875 0.124756ZM15.1728 13.471C13.8671 14.579 12.4714 15.5762 11 16.4523C9.52864 15.5762 8.13287 14.579 6.82719 13.471C4.79562 11.7282 2.375 9.07038 2.375 6.31226C2.375 5.26797 2.78984 4.26645 3.52827 3.52802C4.26669 2.7896 5.26821 2.37476 6.3125 2.37476C7.98125 2.37476 9.37813 3.25601 9.95844 4.67538C10.0429 4.88229 10.1871 5.05936 10.3726 5.184C10.5581 5.30864 10.7765 5.37521 11 5.37521C11.2235 5.37521 11.4419 5.30864 11.6274 5.184C11.8129 5.05936 11.9571 4.88229 12.0416 4.67538C12.6219 3.25601 14.0188 2.37476 15.6875 2.37476C16.7318 2.37476 17.7333 2.7896 18.4717 3.52802C19.2102 4.26645 19.625 5.26797 19.625 6.31226C19.625 9.07038 17.2044 11.7282 15.1728 13.471Z" fill="#F3F2EE"/>
</svg>
