<svg width="20" height="20" viewBox="0 0 20 20" fill="none" xmlns="http://www.w3.org/2000/svg">
<path d="M19.6488 18.3751C18.2209 15.9067 16.0206 14.1367 13.4528 13.2976C14.723 12.5415 15.7098 11.3893 16.2618 10.018C16.8137 8.64678 16.9003 7.13224 16.5082 5.70701C16.1161 4.28178 15.267 3.02467 14.0912 2.12873C12.9155 1.23279 11.4782 0.747559 10 0.747559C8.52182 0.747559 7.08451 1.23279 5.90878 2.12873C4.73306 3.02467 3.88394 4.28178 3.49183 5.70701C3.09971 7.13224 3.18629 8.64678 3.73825 10.018C4.29021 11.3893 5.27704 12.5415 6.5472 13.2976C3.97938 14.1357 1.77907 15.9057 0.35126 18.3751C0.298899 18.4605 0.264169 18.5555 0.249118 18.6545C0.234067 18.7535 0.239 18.8545 0.263626 18.9516C0.288252 19.0487 0.332073 19.1399 0.392502 19.2197C0.452931 19.2996 0.528745 19.3666 0.61547 19.4167C0.702196 19.4667 0.798076 19.499 0.897455 19.5114C0.996833 19.5238 1.0977 19.5163 1.19409 19.4891C1.29049 19.4619 1.38047 19.4157 1.45872 19.3532C1.53697 19.2907 1.6019 19.2131 1.6497 19.1251C3.41595 16.0726 6.53782 14.2501 10 14.2501C13.4622 14.2501 16.5841 16.0726 18.3503 19.1251C18.3981 19.2131 18.4631 19.2907 18.5413 19.3532C18.6196 19.4157 18.7095 19.4619 18.8059 19.4891C18.9023 19.5163 19.0032 19.5238 19.1026 19.5114C19.2019 19.499 19.2978 19.4667 19.3845 19.4167C19.4713 19.3666 19.5471 19.2996 19.6075 19.2197C19.6679 19.1399 19.7118 19.0487 19.7364 18.9516C19.761 18.8545 19.766 18.7535 19.7509 18.6545C19.7358 18.5555 19.7011 18.4605 19.6488 18.3751ZM4.75001 7.50011C4.75001 6.46176 5.05792 5.44672 5.63479 4.58337C6.21167 3.72001 7.03161 3.0471 7.99092 2.64974C8.95023 2.25238 10.0058 2.14841 11.0242 2.35099C12.0426 2.55356 12.9781 3.05357 13.7123 3.7878C14.4465 4.52202 14.9466 5.45748 15.1491 6.47589C15.3517 7.49429 15.2477 8.54989 14.8504 9.5092C14.453 10.4685 13.7801 11.2884 12.9168 11.8653C12.0534 12.4422 11.0384 12.7501 10 12.7501C8.60808 12.7486 7.27359 12.195 6.28934 11.2108C5.3051 10.2265 4.7515 8.89204 4.75001 7.50011Z" fill="#F3F2EE"/>
</svg>
